<svg width="70" height="55" viewBox="0 0 70 55" fill="none" xmlns="http://www.w3.org/2000/svg">
<g clip-path="url(#clip0_851_20491)">
<path d="M12.7257 54.7267V51.0865C12.7257 49.6908 11.8852 48.7809 10.4444 48.7809C9.7242 48.7809 8.94381 49.0236 8.4035 49.8124C7.9835 49.1449 7.3833 48.7809 6.48287 48.7809C5.8824 48.7809 5.28248 48.9628 4.80205 49.6302V48.9023H3.5415V54.7267H4.80205V51.511C4.80205 50.4798 5.34236 49.9942 6.18291 49.9942C7.02291 49.9942 7.44346 50.5404 7.44346 51.511V54.7267H8.704V51.511C8.704 50.4798 9.30393 49.9942 10.0843 49.9942C10.9249 49.9942 11.3449 50.5404 11.3449 51.511V54.7267H12.7257ZM31.3936 48.9023H29.3529V47.1428H28.0924V48.9023H26.9519V50.0548H28.0921V52.7246C28.0921 54.0595 28.6324 54.8481 30.0731 54.8481C30.6135 54.8481 31.2134 54.6662 31.6339 54.4235L31.2735 53.3313C30.9134 53.5739 30.4934 53.6347 30.1932 53.6347C29.593 53.6347 29.3529 53.2707 29.3529 52.6638V50.0548H31.3936V48.9023ZM42.0784 48.7806C41.3582 48.7806 40.878 49.1449 40.5778 49.6302V48.9023H39.3172V54.7267H40.5778V51.4505C40.5778 50.4798 40.9978 49.9337 41.7782 49.9337C42.0183 49.9337 42.3185 49.9945 42.5586 50.055L42.9187 48.8417C42.6786 48.7809 42.3185 48.7809 42.0784 48.7809V48.7806ZM25.9314 49.3876C25.3309 48.9628 24.4906 48.7809 23.5902 48.7809C22.1497 48.7809 21.1894 49.5089 21.1894 50.6617C21.1894 51.6326 21.9097 52.1785 23.1702 52.3606L23.7704 52.4214C24.4308 52.5425 24.7909 52.7246 24.7909 53.0281C24.7909 53.4526 24.3107 53.7561 23.4702 53.7561C22.6299 53.7561 21.9695 53.4526 21.5493 53.1494L20.9491 54.1201C21.6094 54.6054 22.5099 54.8481 23.41 54.8481C25.0908 54.8481 26.0514 54.0595 26.0514 52.9673C26.0514 51.9358 25.271 51.3897 24.0704 51.2078L23.4702 51.147C22.9299 51.0862 22.5099 50.9652 22.5099 50.6012C22.5099 50.1764 22.9299 49.9337 23.5902 49.9337C24.3107 49.9337 25.031 50.2369 25.3911 50.419L25.9314 49.3876ZM59.4261 48.7809C58.7056 48.7809 58.2255 49.1449 57.9252 49.6302V48.9023H56.6647V54.7267H57.9252V51.4505C57.9252 50.4798 58.3455 49.9337 59.1256 49.9337C59.366 49.9337 59.6662 49.9945 59.9063 50.055L60.2664 48.8417C60.0263 48.7809 59.6662 48.7809 59.4261 48.7809ZM43.339 51.8145C43.339 53.5739 44.5394 54.8481 46.4004 54.8481C47.2406 54.8481 47.8408 54.6662 48.441 54.1809L47.8408 53.1494C47.3607 53.5134 46.8805 53.6953 46.3402 53.6953C45.3197 53.6953 44.5995 52.9673 44.5995 51.8145C44.5995 50.7225 45.3197 49.9942 46.3402 49.9337C46.8805 49.9337 47.3607 50.1156 47.8408 50.4798L48.441 49.4484C47.8408 48.9628 47.2406 48.7809 46.4004 48.7809C44.5394 48.7809 43.339 50.055 43.339 51.8145ZM54.9841 51.8145V48.9023H53.7236V49.6302C53.3033 49.0844 52.7031 48.7809 51.9227 48.7809C50.3021 48.7809 49.0415 50.055 49.0415 51.8145C49.0415 53.5739 50.3021 54.8481 51.9227 54.8481C52.763 54.8481 53.3635 54.5449 53.7236 53.9987V54.7267H54.9841V51.8145ZM50.3619 51.8145C50.3619 50.783 51.0223 49.9337 52.1026 49.9337C53.1231 49.9337 53.8436 50.7225 53.8436 51.8145C53.8436 52.846 53.1231 53.6953 52.1026 53.6953C51.0223 53.6345 50.3619 52.846 50.3619 51.8145ZM35.2955 48.7809C33.6147 48.7809 32.414 49.9942 32.414 51.8145C32.414 53.6347 33.6144 54.8481 35.3554 54.8481C36.1957 54.8481 37.0362 54.6054 37.6966 54.0595L37.0961 53.1494C36.616 53.5134 36.0158 53.7561 35.4156 53.7561C34.6352 53.7561 33.8548 53.3921 33.6746 52.3603H37.9367V51.8753C37.9968 49.9942 36.9162 48.7809 35.2953 48.7809H35.2955ZM35.2955 49.8729C36.0756 49.8729 36.6162 50.3585 36.736 51.2686H33.7347C33.8548 50.4798 34.3951 49.8729 35.2955 49.8729ZM66.5691 51.8145V46.5967H65.3086V49.6302C64.8883 49.0844 64.2881 48.7809 63.5077 48.7809C61.8871 48.7809 60.6265 50.055 60.6265 51.8145C60.6265 53.5739 61.8871 54.8481 63.5077 54.8481C64.3483 54.8481 64.9485 54.5449 65.3086 53.9987V54.7267H66.5691V51.8145ZM61.9472 51.8145C61.9472 50.783 62.6073 49.9337 63.6879 49.9337C64.7084 49.9337 65.4286 50.7225 65.4286 51.8145C65.4286 52.846 64.7084 53.6953 63.6879 53.6953C62.6073 53.6345 61.9472 52.846 61.9472 51.8145ZM19.8086 51.8145V48.9023H18.548V49.6302C18.1278 49.0844 17.5276 48.7809 16.7472 48.7809C15.1265 48.7809 13.866 50.055 13.866 51.8145C13.866 53.5739 15.1265 54.8481 16.7472 54.8481C17.5877 54.8481 18.1879 54.5449 18.548 53.9987V54.7267H19.8086V51.8145ZM15.1265 51.8145C15.1265 50.783 15.7869 49.9337 16.8672 49.9337C17.8877 49.9337 18.6082 50.7225 18.6082 51.8145C18.6082 52.846 17.8877 53.6953 16.8672 53.6953C15.7869 53.6345 15.1265 52.846 15.1265 51.8145Z" fill="black"/>
<path d="M25.5112 4.67163H44.4194V39.0124H25.5112V4.67163Z" fill="#FF5F00"/>
<path d="M26.7118 21.8422C26.7118 14.8649 29.9532 8.67618 34.9352 4.67168C31.2739 1.75945 26.652 0 21.6098 0C9.6641 0 0 9.76817 0 21.8422C0 33.9159 9.6641 43.6844 21.6095 43.6844C26.6517 43.6844 31.2736 41.9249 34.9352 39.0124C29.9532 35.0687 26.7118 28.8194 26.7118 21.8422Z" fill="#EB001B"/>
<path d="M69.9306 21.8422C69.9306 33.9159 60.2665 43.6844 48.3211 43.6844C43.2789 43.6844 38.657 41.9249 34.9954 39.0124C40.0375 35.0082 43.219 28.8194 43.219 21.8422C43.219 14.8649 39.9774 8.67618 34.9954 4.67168C38.6567 1.75945 43.2789 0 48.3211 0C60.2665 0 69.9308 9.82897 69.9308 21.8422H69.9306Z" fill="#F79E1B"/>
</g>
<defs>
<clipPath id="clip0_851_20491">
<rect width="70" height="55" fill="white"/>
</clipPath>
</defs>
</svg>
