<svg width="70" height="23" viewBox="0 0 70 23" fill="none" xmlns="http://www.w3.org/2000/svg">
<g clip-path="url(#clip0_851_20496)">
<path d="M36.2023 7.32338C36.1624 10.5146 39.0086 12.2953 41.1526 13.3541C43.3554 14.4404 44.0954 15.137 44.0866 16.1085C44.0702 17.5952 42.3295 18.2514 40.7006 18.2769C37.8588 18.3215 36.2064 17.4994 34.8928 16.8775L33.8691 21.7322C35.187 22.3476 37.6275 22.8844 40.1581 22.908C46.0986 22.908 49.9849 19.9362 50.006 15.3288C50.0292 9.48122 42.0249 9.15756 42.0796 6.54387C42.0984 5.75134 42.8447 4.90561 44.4798 4.69057C45.2892 4.58195 47.5234 4.49882 50.0566 5.68096L51.0508 0.983973C49.6885 0.481297 47.9377 -4.00543e-05 45.7579 -4.00543e-05C40.1666 -4.00543e-05 36.234 3.01213 36.2023 7.32338ZM60.6041 0.404537C59.5194 0.404537 58.6053 1.04576 58.1973 2.02978L49.7118 22.563H55.6478L56.8291 19.2546H64.0828L64.768 22.563H70L65.4344 0.404537H60.6041ZM61.4346 6.39036L63.1477 14.7111H58.456L61.4346 6.39036ZM29.0052 0.404814L24.3261 22.5627H29.9827L34.6596 0.404261H29.0052V0.404814ZM20.6371 0.404261L14.7495 15.4864L12.3679 2.66269C12.0884 1.23115 10.9848 0.404537 9.75926 0.404537H0.134805L0 1.04798C1.97586 1.48249 4.22078 2.1833 5.58086 2.93315C6.4132 3.39121 6.65055 3.79163 6.92398 4.88012L11.4349 22.563H17.4125L26.577 0.404537H20.6371" fill="url(#paint0_linear_851_20496)"/>
</g>
<defs>
<linearGradient id="paint0_linear_851_20496" x1="32.1818" y1="23.3675" x2="32.8538" y2="-0.158852" gradientUnits="userSpaceOnUse">
<stop stop-color="#222357"/>
<stop offset="1" stop-color="#254AA5"/>
</linearGradient>
<clipPath id="clip0_851_20496">
<rect width="70" height="23" fill="white"/>
</clipPath>
</defs>
</svg>
