<svg width="26" height="26" viewBox="0 0 26 26" fill="none" xmlns="http://www.w3.org/2000/svg">
<path d="M13 15.8684C14.8075 15.8684 16.2727 14.4032 16.2727 12.5957C16.2727 10.7882 14.8075 9.32298 13 9.32298C11.1925 9.32298 9.72727 10.7882 9.72727 12.5957C9.72727 14.4032 11.1925 15.8684 13 15.8684Z" stroke="#2F3930" stroke-linecap="round" stroke-linejoin="round"/>
<path d="M21.0727 15.8684C20.9275 16.1975 20.8842 16.5625 20.9484 16.9163C21.0125 17.2702 21.1812 17.5968 21.4327 17.8539L21.4982 17.9193C21.701 18.122 21.862 18.3626 21.9718 18.6275C22.0816 18.8923 22.1381 19.1763 22.1381 19.463C22.1381 19.7497 22.0816 20.0336 21.9718 20.2985C21.862 20.5634 21.701 20.804 21.4982 21.0066C21.2956 21.2095 21.0549 21.3704 20.7901 21.4802C20.5252 21.59 20.2413 21.6465 19.9545 21.6465C19.6678 21.6465 19.3839 21.59 19.119 21.4802C18.8542 21.3704 18.6135 21.2095 18.4109 21.0066L18.3455 20.9412C18.0884 20.6897 17.7618 20.521 17.4079 20.4568C17.054 20.3926 16.689 20.4359 16.36 20.5812C16.0373 20.7194 15.7622 20.9491 15.5683 21.2417C15.3745 21.5344 15.2705 21.8774 15.2691 22.2284V22.4139C15.2691 22.9925 15.0392 23.5475 14.6301 23.9567C14.2209 24.3658 13.6659 24.5957 13.0873 24.5957C12.5086 24.5957 11.9537 24.3658 11.5445 23.9567C11.1353 23.5475 10.9055 22.9925 10.9055 22.4139V22.3157C10.897 21.9546 10.7801 21.6044 10.57 21.3107C10.3599 21.0169 10.0663 20.7931 9.72727 20.6684C9.39824 20.5232 9.03324 20.4799 8.67936 20.5441C8.32547 20.6082 7.99892 20.7769 7.74182 21.0284L7.67636 21.0939C7.47373 21.2967 7.2331 21.4577 6.96823 21.5675C6.70336 21.6773 6.41945 21.7338 6.13273 21.7338C5.846 21.7338 5.56209 21.6773 5.29722 21.5675C5.03235 21.4577 4.79172 21.2967 4.58909 21.0939C4.38623 20.8913 4.2253 20.6506 4.11551 20.3858C4.00571 20.1209 3.94919 19.837 3.94919 19.5502C3.94919 19.2635 4.00571 18.9796 4.11551 18.7147C4.2253 18.4499 4.38623 18.2092 4.58909 18.0066L4.65455 17.9412C4.90604 17.6841 5.07475 17.3575 5.13891 17.0036C5.20308 16.6497 5.15976 16.2847 5.01455 15.9557C4.87626 15.633 4.64664 15.3579 4.35396 15.164C4.06128 14.9702 3.71831 14.8662 3.36727 14.8648H3.18182C2.60316 14.8648 2.04821 14.6349 1.63904 14.2258C1.22987 13.8166 1 13.2616 1 12.683C1 12.1043 1.22987 11.5494 1.63904 11.1402C2.04821 10.731 2.60316 10.5012 3.18182 10.5012H3.28C3.64108 10.4927 3.99128 10.3758 4.28505 10.1657C4.57883 9.9556 4.8026 9.66196 4.92727 9.32298C5.07249 8.99394 5.11581 8.62895 5.05164 8.27506C4.98748 7.92118 4.81877 7.59463 4.56727 7.33752L4.50182 7.27207C4.29896 7.06943 4.13803 6.82881 4.02823 6.56394C3.91843 6.29907 3.86192 6.01516 3.86192 5.72843C3.86192 5.44171 3.91843 5.15779 4.02823 4.89292C4.13803 4.62806 4.29896 4.38743 4.50182 4.18479C4.70445 3.98194 4.94508 3.82101 5.20995 3.71121C5.47482 3.60141 5.75873 3.5449 6.04545 3.5449C6.33218 3.5449 6.61609 3.60141 6.88096 3.71121C7.14583 3.82101 7.38646 3.98194 7.58909 4.18479L7.65455 4.25025C7.91165 4.50174 8.2382 4.67045 8.59209 4.73462C8.94597 4.79878 9.31096 4.75547 9.64 4.61025H9.72727C10.0499 4.47196 10.3251 4.24235 10.5189 3.94967C10.7128 3.65699 10.8168 3.31402 10.8182 2.96298V2.77752C10.8182 2.19887 11.0481 1.64391 11.4572 1.23474C11.8664 0.825573 12.4213 0.595703 13 0.595703C13.5787 0.595703 14.1336 0.825573 14.5428 1.23474C14.9519 1.64391 15.1818 2.19887 15.1818 2.77752V2.8757C15.1832 3.22674 15.2872 3.56971 15.4811 3.86239C15.6749 4.15507 15.9501 4.38469 16.2727 4.52298C16.6018 4.66819 16.9668 4.71151 17.3206 4.64734C17.6745 4.58318 18.0011 4.41447 18.2582 4.16298L18.3236 4.09752C18.5263 3.89466 18.7669 3.73374 19.0318 3.62394C19.2966 3.51414 19.5805 3.45762 19.8673 3.45762C20.154 3.45762 20.4379 3.51414 20.7028 3.62394C20.9676 3.73374 21.2083 3.89466 21.4109 4.09752C21.6138 4.30015 21.7747 4.54078 21.8845 4.80565C21.9943 5.07052 22.0508 5.35443 22.0508 5.64116C22.0508 5.92788 21.9943 6.2118 21.8845 6.47666C21.7747 6.74153 21.6138 6.98216 21.4109 7.18479L21.3455 7.25025C21.094 7.50735 20.9253 7.8339 20.8611 8.18779C20.7969 8.54167 20.8402 8.90667 20.9855 9.2357V9.32298C21.1237 9.64563 21.3534 9.92081 21.646 10.1146C21.9387 10.3085 22.2817 10.4125 22.6327 10.4139H22.8182C23.3968 10.4139 23.9518 10.6438 24.361 11.0529C24.7701 11.4621 25 12.017 25 12.5957C25 13.1744 24.7701 13.7293 24.361 14.1385C23.9518 14.5477 23.3968 14.7775 22.8182 14.7775H22.72C22.369 14.7789 22.026 14.8829 21.7333 15.0768C21.4406 15.2706 21.211 15.5458 21.0727 15.8684Z" stroke="#2F3930" stroke-linecap="round" stroke-linejoin="round"/>
</svg>
