<svg width="18" height="10" viewBox="0 0 18 10" fill="none" xmlns="http://www.w3.org/2000/svg">
<path d="M1.70711 9.70711C1.31658 10.0976 0.683417 10.0976 0.292893 9.70711C-0.0976311 9.31658 -0.0976311 8.68342 0.292893 8.29289L1.70711 9.70711ZM17.7071 8.29289C18.0976 8.68342 18.0976 9.31658 17.7071 9.70711C17.3166 10.0976 16.6834 10.0976 16.2929 9.70711L17.7071 8.29289ZM9 1L8.29289 0.292893C8.68342 -0.0976315 9.31658 -0.0976315 9.70711 0.292893L9 1ZM16.2929 9.70711L8.29289 1.70711L9.70711 0.292893L17.7071 8.29289L16.2929 9.70711ZM9.70711 1.70711L1.70711 9.70711L0.292893 8.29289L8.29289 0.292893L9.70711 1.70711Z" fill="#2F3930"/>
</svg>
