<svg width="68" height="60" viewBox="0 0 68 60" fill="none" xmlns="http://www.w3.org/2000/svg">
<path d="M66.8777 27.6879L60 21.6141V5.625C60 5.12772 59.8025 4.65081 59.4508 4.29917C59.0992 3.94754 58.6223 3.75 58.125 3.75H50.625C50.1277 3.75 49.6508 3.94754 49.2992 4.29917C48.9475 4.65081 48.75 5.12772 48.75 5.625V11.6801L36.8883 1.20703C36.1523 0.540234 34.7496 0 33.75 0C32.7504 0 31.3523 0.540234 30.6164 1.20703L0.616406 27.6914C0.246776 28.0649 0.0273845 28.5612 0 29.0859C0.0239495 29.5443 0.191649 29.9834 0.479297 30.341L2.98828 33.1289C3.37931 33.4798 3.87178 33.6973 4.39453 33.75C4.84775 33.7047 5.28044 33.5383 5.64727 33.2684L7.51055 31.6277V56.25C7.51055 57.2446 7.90564 58.1984 8.6089 58.9016C9.31216 59.6049 10.266 60 11.2605 60H56.25C57.2446 60 58.1984 59.6049 58.9016 58.9016C59.6049 58.1984 60 57.2446 60 56.25V31.6266L61.8644 33.2672C62.2329 33.5368 62.6665 33.7035 63.1207 33.75C63.6388 33.6959 64.1261 33.4779 64.5117 33.1277L67.0207 30.3375C67.29 29.9705 67.4556 29.5378 67.5 29.0848C67.4462 28.5649 67.2282 28.0756 66.8777 27.6879ZM33.75 20.625C35.2334 20.625 36.6834 21.0649 37.9168 21.889C39.1501 22.7131 40.1114 23.8844 40.6791 25.2549C41.2468 26.6253 41.3953 28.1333 41.1059 29.5882C40.8165 31.043 40.1022 32.3794 39.0533 33.4283C38.0044 34.4772 36.668 35.1915 35.2132 35.4809C33.7583 35.7703 32.2503 35.6218 30.8799 35.0541C29.5094 34.4864 28.3381 33.5251 27.514 32.2918C26.6899 31.0584 26.25 29.6084 26.25 28.125C26.25 26.1359 27.0402 24.2282 28.4467 22.8217C29.8532 21.4152 31.7609 20.625 33.75 20.625ZM46.875 52.5H20.625C20.1277 52.5 19.6508 52.3025 19.2992 51.9508C18.9475 51.5992 18.75 51.1223 18.75 50.625C18.75 47.6413 19.9353 44.7798 22.045 42.67C24.1548 40.5603 27.0163 39.375 30 39.375H37.5C40.4837 39.375 43.3452 40.5603 45.455 42.67C47.5647 44.7798 48.75 47.6413 48.75 50.625C48.75 51.1223 48.5525 51.5992 48.2008 51.9508C47.8492 52.3025 47.3723 52.5 46.875 52.5Z" fill="#36B44A"/>
</svg>
