<svg width="83" height="122" viewBox="0 0 83 122" fill="none" xmlns="http://www.w3.org/2000/svg">
<g opacity="0.2">
<path d="M43.3238 1.47991C43.3238 1.47991 43.5007 2.30083 43.9984 3.73749C44.4653 5.17416 45.2701 7.22634 46.3501 9.68909C46.9422 10.9206 47.5131 12.2546 48.2457 13.6654C48.9968 15.0764 49.6855 16.5643 50.5906 18.1034C51.4767 19.6426 52.3144 21.2332 53.3203 22.8494L56.2778 27.7493C57.2441 29.3911 58.3373 31.033 59.3455 32.6492C60.3663 34.2654 61.3689 35.856 62.4087 37.3952C63.4394 38.9343 64.3952 40.4224 65.374 41.8332L68.1315 45.8095L72.4905 51.7611L74.2475 54.0187C88.326 72.1084 85.0743 98.1861 66.9846 112.265C48.8949 126.343 22.8172 123.091 8.73866 105.002C-3.17234 89.6971 -2.65051 68.6547 8.73866 54.0187L10.4956 51.7611L14.8547 45.8095L17.6121 41.8332C18.5909 40.4222 19.547 38.9343 20.5775 37.3952C21.6172 35.856 22.6199 34.2654 23.6406 32.6492C24.6486 31.033 25.7418 29.3911 26.7084 27.7493L29.6659 22.8494C30.6717 21.2332 31.5095 19.6426 32.3955 18.1034C33.3004 16.5643 33.9893 15.0762 34.7404 13.6654C35.473 12.2543 36.0441 10.9203 36.636 9.68909C37.716 7.22634 38.5208 5.17392 38.9877 3.73749C39.4854 2.30083 39.6623 1.47991 39.6623 1.47991C39.7521 1.06101 39.9828 0.685568 40.316 0.416244C40.6492 0.14692 41.0646 0 41.4931 0C41.9215 0 42.337 0.14692 42.6701 0.416244C43.0033 0.685568 43.234 1.06101 43.3238 1.47991Z" fill="#36B44A"/>
<path d="M19.1605 61.9719L18.9194 63.0594C18.834 63.4103 18.7404 63.8362 18.734 64.2363C18.7116 64.673 18.645 65.0694 18.6513 65.6393C18.6521 66.1862 18.6108 66.7481 18.6694 67.3724C18.6977 67.9845 18.746 68.6227 18.8489 69.2887C19.0099 70.6048 19.331 72 19.7211 73.3498C20.5093 76.0595 21.713 78.6042 22.7493 80.2207C23.1221 80.8278 23.5474 81.4011 24.0204 81.934L24.4795 82.3431C27.8412 85.3379 28.1386 90.491 25.1438 93.8525C22.1489 97.2143 16.9958 97.5117 13.6343 94.5168C12.4449 93.4606 11.5921 92.078 11.1821 90.5411L10.7881 89.0717L10.3655 87.5001C10.1674 86.5577 9.93788 85.2538 9.83249 83.7929C9.58658 80.8569 9.72344 77.1426 10.4002 73.5389C10.7427 71.7375 11.1865 69.9715 11.7651 68.3599C12.0308 67.5549 12.346 66.7898 12.6653 66.0774C12.9517 65.3636 13.3286 64.7096 13.6338 64.1141C13.9198 63.532 14.3235 62.9428 14.6109 62.4708C14.9136 61.9592 15.1837 61.6303 15.4072 61.3637L16.1073 60.4979C16.3977 60.1388 16.8188 59.9098 17.278 59.8612C17.7372 59.8126 18.1969 59.9485 18.5559 60.2388C19.0863 60.6677 19.2976 61.3481 19.1605 61.9719Z" fill="#B9D030"/>
</g>
</svg>
