<svg width="25" height="20" viewBox="0 0 25 20" fill="none" xmlns="http://www.w3.org/2000/svg">
<path d="M3.3 1H21.7C22.965 1 24 2.035 24 3.3V17.1C24 18.365 22.965 19.4 21.7 19.4H3.3C2.035 19.4 1 18.365 1 17.1V3.3C1 2.035 2.035 1 3.3 1Z" />
<path d="M24 3.3L12.5 11.35L1 3.3" />
<path d="M24 3.3C24 2.035 22.965 1 21.7 1H3.3C2.035 1 1 2.035 1 3.3M24 3.3V17.1C24 18.365 22.965 19.4 21.7 19.4H3.3C2.035 19.4 1 18.365 1 17.1V3.3M24 3.3L12.5 11.35L1 3.3" stroke="#36B44A" stroke-width="1.15" stroke-linecap="round" stroke-linejoin="round"/>
</svg>
