<svg width="34" height="34" viewBox="0 0 34 34" fill="none" xmlns="http://www.w3.org/2000/svg">
<path d="M0.33667 17.0032C0.338609 25.2022 6.30067 32.1833 14.3983 33.4682V21.8199H10.17V17.0032H14.4033V13.3366C14.2141 11.5991 14.8075 9.86757 16.0227 8.61146C17.2379 7.35536 18.9489 6.70493 20.6917 6.83658C21.9426 6.85678 23.1903 6.96819 24.425 7.16991V11.2682H22.3183C21.5931 11.1733 20.8639 11.4128 20.3363 11.9194C19.8086 12.4259 19.5396 13.1447 19.605 13.8732V17.0032H24.2233L23.485 21.8216H19.605V33.4682C28.3625 32.0842 34.5035 24.0862 33.5792 15.2684C32.6549 6.45053 24.9888 -0.100207 16.1347 0.361875C7.28061 0.823957 0.338077 8.13709 0.33667 17.0032Z" fill="#36B44A"/>
</svg>
