<svg width="31" height="31" viewBox="0 0 31 31" fill="none" xmlns="http://www.w3.org/2000/svg">
<path d="M15.0034 30.0688C10.9034 30.0688 10.4201 30.0471 8.82008 29.9771C7.57237 29.9361 6.34081 29.6825 5.17842 29.2271C3.16727 28.4445 1.57699 26.8536 0.795085 24.8421C0.357262 23.6755 0.121114 22.4429 0.0967513 21.1971C0.00341797 19.6005 0.00341797 19.0771 0.00341797 15.0088C0.00341797 10.8971 0.0250846 10.4171 0.0967513 8.82546C0.121647 7.58132 0.357787 6.35047 0.795085 5.18546C1.57614 3.17134 3.169 1.57908 5.18342 0.798789C6.34782 0.359126 7.57899 0.122363 8.82342 0.0987891C10.4151 0.00878906 10.9384 0.00878906 15.0034 0.00878906C19.1368 0.00878906 19.6118 0.0304557 21.1868 0.0987891C22.4344 0.122567 23.6688 0.359305 24.8368 0.798789C26.8506 1.57996 28.4431 3.17192 29.2251 5.18546C29.6703 6.36745 29.9077 7.61754 29.9267 8.88046C30.0201 10.4771 30.0201 10.9988 30.0201 15.0655C30.0201 19.1321 29.9967 19.6655 29.9267 21.2438C29.9019 22.4908 29.6652 23.7245 29.2267 24.8921C28.4429 26.905 26.8502 28.4964 24.8368 29.2788C23.6705 29.7158 22.4386 29.9519 21.1934 29.9771C19.6018 30.0688 19.0801 30.0688 15.0034 30.0688ZM14.9468 2.64712C10.8701 2.64712 10.4468 2.66712 8.85509 2.73879C7.90506 2.75138 6.96422 2.92669 6.07342 3.25712C4.75801 3.76047 3.71713 4.79711 3.20842 6.11046C2.87544 7.01095 2.7001 7.96209 2.69008 8.92212C2.60175 10.5371 2.60175 10.9605 2.60175 15.0088C2.60175 19.0088 2.61675 19.4938 2.69008 21.0988C2.705 22.0491 2.88024 22.9901 3.20842 23.8821C3.71788 25.1946 4.75857 26.2305 6.07342 26.7338C6.96361 27.0664 7.90484 27.2418 8.85509 27.2521C10.4684 27.3455 10.8934 27.3455 14.9468 27.3455C19.0351 27.3455 19.4584 27.3255 21.0368 27.2521C21.9874 27.2406 22.929 27.0652 23.8201 26.7338C25.1275 26.2261 26.1616 25.1926 26.6701 23.8855C27.0024 22.9842 27.1777 22.0326 27.1884 21.0721H27.2067C27.2784 19.4788 27.2784 19.0538 27.2784 14.9821C27.2784 10.9105 27.2601 10.4821 27.1884 8.89046C27.1735 7.94121 26.9982 7.00131 26.6701 6.11046C26.1628 4.80141 25.1285 3.76594 23.8201 3.25712C22.9292 2.92502 21.9875 2.74966 21.0368 2.73879C19.4251 2.64712 19.0034 2.64712 14.9468 2.64712ZM15.0034 22.7071C11.8867 22.7091 9.07578 20.8333 7.88152 17.9545C6.68726 15.0758 7.34493 11.761 9.5478 9.55622C11.7507 7.35144 15.0649 6.69091 17.9447 7.88268C20.8245 9.07444 22.7027 11.8838 22.7034 15.0005C22.6988 19.2522 19.2552 22.6989 15.0034 22.7071ZM15.0034 9.99712C12.242 9.99712 10.0034 12.2357 10.0034 14.9971C10.0034 17.7585 12.242 19.9971 15.0034 19.9971C17.7648 19.9971 20.0034 17.7585 20.0034 14.9971C19.997 12.2384 17.7622 10.0035 15.0034 9.99712ZM23.0034 8.8088C22.0125 8.80511 21.2116 7.99977 21.2134 7.0088C21.2153 6.01784 22.0191 5.21547 23.0101 5.21547C24.001 5.21547 24.8049 6.01782 24.8068 7.00879C24.8072 7.48689 24.6172 7.94549 24.2789 8.28325C23.9405 8.62101 23.4815 8.81012 23.0034 8.8088Z" fill="#36B44A"/>
</svg>
