<svg width="31" height="30" viewBox="0 0 31 30" fill="none" xmlns="http://www.w3.org/2000/svg">
<path d="M17.3327 30H10.666V10H17.3327V13.3333C18.7537 11.5254 20.9087 10.4476 23.2077 10.395C27.342 10.418 30.678 13.7823 30.666 17.9167V30H23.9993V18.75C23.7327 16.8877 22.1356 15.506 20.2544 15.51C19.4315 15.536 18.6548 15.8963 18.1034 16.5077C17.5521 17.1191 17.2738 17.9288 17.3327 18.75V30ZM7.33268 30H0.666016V10H7.33268V30ZM3.99935 6.66667C2.1584 6.66667 0.666016 5.17428 0.666016 3.33333C0.666016 1.49238 2.1584 0 3.99935 0C5.8403 0 7.33268 1.49238 7.33268 3.33333C7.33268 4.21739 6.98149 5.06523 6.35637 5.69036C5.73125 6.31548 4.8834 6.66667 3.99935 6.66667Z" fill="#36B44A"/>
</svg>
