<svg width="16" height="17" viewBox="0 0 16 17" fill="none" xmlns="http://www.w3.org/2000/svg">
<path d="M0.0117607 6.5123C0.0134897 6.7766 0.10018 7.03334 0.259023 7.24458C0.417867 7.45583 0.640441 7.61039 0.893869 7.68543L6.87489 9.52558L8.71512 15.5064C8.7901 15.7599 8.94462 15.9825 9.15587 16.1414C9.36711 16.3002 9.62386 16.3869 9.88817 16.3886C9.8959 16.3888 9.90379 16.3889 9.91145 16.3889C10.1718 16.3914 10.4262 16.3114 10.6381 16.1602C10.8501 16.0091 11.0087 15.7947 11.0911 15.5478L15.6695 2.32105C15.7462 2.09937 15.7591 1.86057 15.7065 1.63194C15.6539 1.40332 15.538 1.19411 15.3722 1.02823C15.2063 0.862345 14.9971 0.746491 14.7684 0.693912C14.5398 0.641332 14.301 0.654148 14.0793 0.730896L0.852619 5.30949C0.601944 5.39321 0.38485 5.55535 0.233416 5.77195C0.0819817 5.98855 0.00424099 6.24812 0.0116825 6.5123H0.0117607Z" fill="#36B44A"/>
</svg>
