<svg width="120" height="120" viewBox="0 0 120 120" fill="none" xmlns="http://www.w3.org/2000/svg">
<path d="M60 120C93.1371 120 120 93.1371 120 60C120 26.8629 93.1371 0 60 0C26.8629 0 0 26.8629 0 60C0 93.1371 26.8629 120 60 120Z" fill="#DDFFE2"/>
<path d="M59.9998 117.397C90.2308 117.397 114.738 92.89 114.738 62.659C114.738 32.428 90.2308 7.9209 59.9998 7.9209C29.7688 7.9209 5.26172 32.428 5.26172 62.659C5.26172 92.89 29.7688 117.397 59.9998 117.397Z" fill="#36B44A"/>
<path d="M55.221 84.1125C55.1028 84.1125 54.9832 84.1097 54.8636 84.104C53.8138 84.053 52.7874 83.7756 51.8548 83.2909C50.9222 82.8062 50.1055 82.1255 49.4605 81.2956L40.8333 70.2048C39.647 68.6766 39.1154 66.7403 39.3552 64.8206C39.5949 62.901 40.5865 61.1549 42.1121 59.9655L42.4211 59.7248C43.9497 58.5385 45.8863 58.0069 47.8063 58.2463C49.7263 58.4858 51.473 59.4769 52.6633 61.0022C53.0505 61.5005 53.5409 61.9093 54.1009 62.2003C54.6608 62.4914 55.2771 62.6578 55.9074 62.6884C56.5384 62.7253 57.1698 62.6224 57.7564 62.387C58.3431 62.1517 58.8705 61.7897 59.3011 61.3269L76.8176 42.8362C78.1497 41.4336 79.9836 40.6165 81.9173 40.5642C83.8509 40.5119 85.7264 41.2286 87.1324 42.5571L87.4173 42.8263C88.8207 44.1581 89.6384 45.9923 89.691 47.9263C89.7435 49.8604 89.0267 51.7363 87.6978 53.1425L60.5159 81.834C59.8347 82.554 59.0138 83.1275 58.1034 83.5193C57.193 83.9111 56.2122 84.1129 55.221 84.1125Z" fill="white"/>
<path opacity="0.16" d="M59.9998 109.814C46.1513 109.812 32.8183 104.56 22.6884 95.1175C12.5585 85.6748 6.38482 72.743 5.41176 58.9287C5.32303 60.203 5.26172 61.4849 5.26172 62.7819C5.26172 77.2993 11.0288 91.2221 21.2942 101.488C31.5595 111.753 45.4823 117.52 59.9998 117.52C74.5172 117.52 88.4401 111.753 98.7054 101.488C108.971 91.2221 114.738 77.2993 114.738 62.7819C114.738 61.4849 114.677 60.203 114.588 58.9287C113.615 72.743 107.441 85.6748 97.3112 95.1175C87.1813 104.56 73.8483 109.812 59.9998 109.814Z" fill="#231F20"/>
</svg>
