<svg width="200" height="124" viewBox="0 0 200 124" fill="none" xmlns="http://www.w3.org/2000/svg">
<path opacity="0.1" d="M200 79.0108C200.003 82.3438 199.6 85.6647 198.799 88.9001C198.53 89.9902 198.217 91.0577 197.86 92.1025C197.424 93.3922 196.919 94.6574 196.346 95.8925C196.057 96.5174 195.752 97.1298 195.431 97.7298C195.436 101.148 194.732 104.529 193.364 107.662C190.891 113.281 186.481 117.825 180.938 120.465C177.472 122.118 173.685 122.988 169.845 123.012H37.9695C32.1021 123.024 26.336 121.483 21.2576 118.544L21.1794 118.5C20.4561 118.077 19.7508 117.628 19.0637 117.155C17.5177 116.087 16.0652 114.89 14.7219 113.576C12.9037 111.799 11.3016 109.814 9.94872 107.662C6.77136 102.616 5.08817 96.7744 5.09407 90.812C1.87632 85.1661 0 78.4029 0 71.1354C0 61.966 2.98173 53.6016 7.88053 47.2696C8.90183 45.9468 10.0205 44.702 11.2273 43.5459C12.418 42.4018 13.6979 41.3542 15.0547 40.413C16.1402 39.6592 17.2747 38.9785 18.4507 38.3754C18.9415 38.1258 19.4339 37.8898 19.9348 37.6707C20.3746 37.4754 20.8195 37.2938 21.2694 37.1222C21.8094 36.9174 22.3562 36.7289 22.9097 36.5568C23.4633 36.3847 24.0095 36.2342 24.5483 36.1051C25.3407 35.9116 26.1467 35.7542 26.9663 35.6331C27.6455 35.5329 28.3247 35.4633 29.0039 35.4106C29.5439 35.3699 30.089 35.3478 30.6374 35.341H30.9346C31.5391 35.341 32.1402 35.3648 32.7362 35.4055C32.799 35.2799 32.8669 35.1525 32.9298 35.0286C33.1675 34.5752 33.4137 34.1235 33.6616 33.6821C33.6611 33.6781 33.6611 33.6741 33.6616 33.6702C33.7041 33.5921 33.7465 33.5157 33.7907 33.4409C33.991 33.0793 34.1999 32.721 34.4138 32.3661C34.5123 32.1963 34.6091 32.0367 34.7093 31.8771C34.7305 31.8374 34.7537 31.7988 34.7789 31.7616C34.8808 31.5918 34.9844 31.422 35.0896 31.2522C35.6138 30.4145 36.1588 29.5915 36.7248 28.7833L36.8692 28.5761C36.9575 28.4504 37.039 28.3282 37.1375 28.2025C37.3718 27.8748 37.6129 27.5454 37.8557 27.2228C38.0255 26.9918 38.1953 26.7626 38.3787 26.5436C38.8202 25.9776 39.273 25.4116 39.7371 24.8455C40.2013 24.2795 40.6835 23.7209 41.1839 23.1696C41.2518 23.0932 41.3197 23.0185 41.391 22.9438L42.1161 22.1525C42.1517 22.1151 42.1823 22.0812 42.2163 22.0472C42.3029 21.9538 42.3861 21.8604 42.4794 21.7704C42.8683 21.3578 43.2673 20.9537 43.6681 20.5512C45.7075 18.52 47.8801 16.627 50.1715 14.8849C50.2615 14.8136 50.3532 14.7457 50.4432 14.6778C50.8745 14.3535 51.3126 14.0325 51.7507 13.7167C54.1603 11.988 56.6792 10.4169 59.2916 9.01318C59.4716 8.9096 59.655 8.81281 59.84 8.71772C62.1821 7.47869 64.5907 6.36989 67.0549 5.39639C68.3981 4.86491 69.7718 4.36569 71.154 3.90892C72.0743 3.60667 72.998 3.3197 73.9336 3.04972C75.3962 2.62861 76.8689 2.25108 78.3519 1.91714C82.7208 0.936843 87.1653 0.33128 91.6372 0.107044C92.9956 0.0379912 94.3693 0.00233323 95.7583 6.91951e-05C102.46 -0.00880364 109.136 0.835677 115.625 2.51314C115.692 2.61453 115.784 2.69718 115.892 2.75333C116 2.80947 116.12 2.83725 116.242 2.83407H116.812C117.06 2.90199 117.306 2.96991 117.554 3.04123C118.939 3.4397 120.303 3.87496 121.648 4.34701L121.988 4.46927C125.307 5.64955 128.536 7.06827 131.651 8.71432C134.459 10.1946 137.162 11.8648 139.742 13.7133C140.14 13.9986 140.531 14.2861 140.917 14.5759C141.386 14.2759 141.862 13.9884 142.347 13.7133C144.218 12.6477 146.205 11.8005 148.27 11.1883C152.586 9.91112 157.152 9.73251 161.555 10.6687C167.201 11.8659 172.312 14.8374 176.44 19.0638C178.121 20.793 179.617 22.6926 180.904 24.7318C180.997 24.8778 181.091 25.0255 181.181 25.175C182.287 26.9798 183.238 28.8754 184.023 30.8413C184.052 30.9143 184.081 30.9822 184.106 31.0535C184.831 32.8944 185.416 34.7874 185.855 36.7164C185.876 36.8149 185.9 36.9117 185.92 37.0102C186.331 38.877 186.61 40.7705 186.755 42.6765C186.755 42.7444 186.755 42.814 186.769 42.8853C186.84 43.8713 186.877 44.8675 186.878 45.8739C186.878 46.7738 186.847 47.667 186.791 48.5533C186.791 48.6501 186.777 48.7503 186.769 48.8505C186.754 49.1069 186.732 49.3599 186.71 49.618C188.006 50.6641 189.22 51.8092 190.34 53.0429C190.835 53.5829 191.313 54.1432 191.776 54.724C193.187 56.4915 194.426 58.3887 195.478 60.3903C198.35 65.8103 200 72.1864 200 79.0108Z" fill="#36B44A"/>
<path d="M111.361 39.3246H89.2772C88.774 39.3252 88.2915 39.5254 87.9357 39.8813C87.5798 40.2371 87.3796 40.7196 87.379 41.2228V90.3049L87.1259 90.3821L81.7083 92.0412C81.4516 92.1194 81.1742 92.0927 80.9372 91.9667C80.7002 91.8407 80.5229 91.6258 80.4441 91.3692L64.3293 38.7311C64.2509 38.4743 64.2776 38.1969 64.4036 37.9599C64.5296 37.7228 64.7446 37.5455 65.0013 37.4669L73.3498 34.9106L97.5523 27.5024L105.901 24.9461C106.028 24.907 106.161 24.8933 106.294 24.9059C106.426 24.9184 106.554 24.957 106.672 25.0193C106.789 25.0816 106.893 25.1664 106.978 25.2689C107.063 25.3715 107.126 25.4897 107.165 25.6168L111.284 39.0715L111.361 39.3246Z" fill="#F2F2F2"/>
<path d="M116.18 39.0713L111.216 22.8553C111.133 22.5851 110.998 22.3339 110.819 22.1159C110.639 21.8979 110.418 21.7175 110.168 21.5849C109.919 21.4524 109.646 21.3702 109.364 21.3433C109.083 21.3164 108.799 21.3451 108.529 21.4279L96.7919 25.0206L72.5907 32.43L60.8532 36.024C60.308 36.1915 59.8514 36.5684 59.5838 37.0721C59.3162 37.5758 59.2593 38.1651 59.4257 38.7107L76.3934 94.1303C76.5286 94.5707 76.8014 94.9562 77.1717 95.2302C77.5421 95.5042 77.9905 95.6523 78.4512 95.6527C78.6644 95.6528 78.8764 95.6208 79.0801 95.5578L87.1261 93.0951L87.3792 93.0167V92.7522L87.1261 92.8294L79.0054 95.3161C78.5241 95.4628 78.0043 95.4126 77.5599 95.1766C77.1156 94.9405 76.783 94.5378 76.6352 94.0569L59.6687 38.636C59.5955 38.3977 59.57 38.1473 59.5936 37.8991C59.6173 37.6509 59.6896 37.4098 59.8066 37.1897C59.9236 36.9695 60.0828 36.7746 60.2752 36.616C60.4676 36.4575 60.6894 36.3384 60.9279 36.2657L72.6653 32.6718L96.8666 25.2636L108.604 21.6696C108.785 21.6144 108.973 21.5862 109.162 21.5861C109.568 21.587 109.963 21.7178 110.289 21.9594C110.615 22.201 110.855 22.5407 110.974 22.9287L115.916 39.0713L115.994 39.3244H116.258L116.18 39.0713Z" fill="#3F3D56"/>
<path d="M74.8576 37.5082C74.6137 37.508 74.3762 37.4297 74.1801 37.2847C73.984 37.1397 73.8395 36.9356 73.7678 36.7025L72.1378 31.3783C72.094 31.2353 72.0788 31.0851 72.0931 30.9362C72.1074 30.7873 72.1508 30.6427 72.221 30.5106C72.2912 30.3785 72.3867 30.2615 72.5021 30.1663C72.6174 30.0712 72.7504 29.9997 72.8935 29.9559L95.1584 23.1395C95.4472 23.0513 95.7592 23.0814 96.0259 23.2231C96.2926 23.3647 96.4922 23.6064 96.5809 23.8951L98.2109 29.2193C98.299 29.5081 98.2689 29.8201 98.1272 30.0868C97.9856 30.3534 97.7439 30.553 97.4553 30.6418L75.1903 37.4582C75.0825 37.4913 74.9704 37.5081 74.8576 37.5082Z" fill="#36B44A"/>
<path d="M83.3962 27.0214C84.794 27.0214 85.9272 25.8883 85.9272 24.4905C85.9272 23.0926 84.794 21.9595 83.3962 21.9595C81.9984 21.9595 80.8652 23.0926 80.8652 24.4905C80.8652 25.8883 81.9984 27.0214 83.3962 27.0214Z" fill="#36B44A"/>
<path d="M83.3937 26.0931C84.2789 26.0931 84.9964 25.3755 84.9964 24.4904C84.9964 23.6052 84.2789 22.8877 83.3937 22.8877C82.5086 22.8877 81.791 23.6052 81.791 24.4904C81.791 25.3755 82.5086 26.0931 83.3937 26.0931Z" fill="white"/>
<path d="M135.593 95.0063H92.8198C92.5346 95.0059 92.2612 94.8925 92.0596 94.6908C91.8579 94.4892 91.7445 94.2158 91.7441 93.9306V42.6782C91.7445 42.393 91.8579 42.1196 92.0595 41.9179C92.2612 41.7163 92.5346 41.6029 92.8198 41.6025H135.593C135.879 41.6029 136.152 41.7163 136.354 41.918C136.555 42.1196 136.669 42.393 136.669 42.6782V93.9306C136.669 94.2158 136.555 94.4892 136.354 94.6908C136.152 94.8925 135.879 95.0059 135.593 95.0063Z" fill="#E6E6E6"/>
<path d="M115.917 39.0713H89.2783C88.708 39.0721 88.1612 39.299 87.758 39.7023C87.3547 40.1056 87.1278 40.6523 87.127 41.2226V92.8293L87.3801 92.7521V41.2226C87.3807 40.7194 87.5809 40.2369 87.9367 39.881C88.2926 39.5252 88.775 39.325 89.2783 39.3244H115.995L115.917 39.0713ZM139.139 39.0713H89.2783C88.708 39.0721 88.1612 39.299 87.758 39.7023C87.3547 40.1056 87.1278 40.6523 87.127 41.2226V99.1821C87.1278 99.7524 87.3547 100.299 87.758 100.702C88.1612 101.106 88.708 101.333 89.2783 101.333H139.139C139.709 101.333 140.256 101.106 140.659 100.702C141.062 100.299 141.289 99.7524 141.29 99.1821V41.2226C141.289 40.6523 141.062 40.1056 140.659 39.7023C140.256 39.299 139.709 39.0721 139.139 39.0713ZM141.037 99.1821C141.036 99.6854 140.836 100.168 140.48 100.524C140.124 100.88 139.642 101.08 139.139 101.08H89.2783C88.775 101.08 88.2926 100.88 87.9367 100.524C87.5809 100.168 87.3807 99.6854 87.3801 99.1821V41.2226C87.3807 40.7194 87.5809 40.2369 87.9367 39.881C88.2926 39.5252 88.775 39.325 89.2783 39.3244H139.139C139.642 39.325 140.124 39.5252 140.48 39.881C140.836 40.2369 141.036 40.7194 141.037 41.2226V99.1821Z" fill="#3F3D56"/>
<path d="M125.85 44.6395H102.565C102.263 44.6392 101.973 44.5191 101.76 44.3055C101.546 44.092 101.426 43.8025 101.426 43.5006V37.9324C101.426 37.6304 101.546 37.3409 101.76 37.1274C101.973 36.9139 102.263 36.7938 102.565 36.7935H125.85C126.152 36.7938 126.441 36.9139 126.655 37.1274C126.868 37.3409 126.988 37.6304 126.989 37.9324V43.5006C126.988 43.8025 126.868 44.092 126.655 44.3055C126.441 44.5191 126.152 44.6392 125.85 44.6395Z" fill="#36B44A"/>
<path d="M114.209 37.1733C115.607 37.1733 116.74 36.0401 116.74 34.6423C116.74 33.2445 115.607 32.1113 114.209 32.1113C112.811 32.1113 111.678 33.2445 111.678 34.6423C111.678 36.0401 112.811 37.1733 114.209 37.1733Z" fill="#36B44A"/>
<path d="M114.208 36.1838C115.059 36.1838 115.749 35.4936 115.749 34.6422C115.749 33.7908 115.059 33.1006 114.208 33.1006C113.356 33.1006 112.666 33.7908 112.666 34.6422C112.666 35.4936 113.356 36.1838 114.208 36.1838Z" fill="white"/>
</svg>
