<svg width="20" height="19" viewBox="0 0 20 19" fill="none" xmlns="http://www.w3.org/2000/svg">
<path d="M8.45612 10.8674C9.61584 12.0439 11.0191 12.9522 12.5672 13.5285L14.6617 11.8618C14.7238 11.8191 14.7974 11.7962 14.8728 11.7962C14.9482 11.7962 15.0218 11.8191 15.0839 11.8618L18.9728 14.3674C19.1204 14.4562 19.2454 14.578 19.3378 14.7234C19.4303 14.8688 19.4877 15.0336 19.5055 15.205C19.5232 15.3763 19.5009 15.5495 19.4403 15.7107C19.3797 15.8719 19.2824 16.0169 19.1561 16.1341L17.3339 17.9341C17.0729 18.1919 16.7522 18.3811 16.4003 18.4849C16.0484 18.5886 15.6763 18.6036 15.3172 18.5285C11.7351 17.7887 8.43342 16.056 5.78946 13.5285C3.20417 10.9759 1.41516 7.72787 0.639456 4.17851C0.562826 3.82498 0.578819 3.45764 0.685887 3.11211C0.792954 2.76657 0.987464 2.45455 1.25057 2.20629L3.13946 0.384067C3.25634 0.263949 3.39889 0.171831 3.55643 0.114611C3.71396 0.05739 3.8824 0.0365496 4.04913 0.0536501C4.21586 0.0707506 4.37656 0.125349 4.5192 0.213356C4.66184 0.301364 4.78272 0.4205 4.87279 0.561845L7.46168 4.40073C7.50633 4.46102 7.53044 4.53405 7.53044 4.60907C7.53044 4.68409 7.50633 4.75712 7.46168 4.8174L5.75612 6.8674C6.34811 8.38459 7.27042 9.75097 8.45612 10.8674Z" fill="#36B44A"/>
</svg>
