<svg width="200" height="40" viewBox="0 0 200 40" fill="none" xmlns="http://www.w3.org/2000/svg">
<path d="M20.0002 7.14282L23.9731 15.6061L32.8574 16.9716L26.4288 23.5556L27.9459 32.8571L20.0002 28.4632L12.0545 32.8571L13.5716 23.5556L7.14307 16.9716L16.0274 15.6061L20.0002 7.14282Z" stroke="#36B44A" stroke-width="1.5" stroke-linecap="round" stroke-linejoin="round"/>
<path d="M60.0002 7.14282L63.9731 15.6061L72.8574 16.9716L66.4288 23.5556L67.9459 32.8571L60.0002 28.4632L52.0545 32.8571L53.5716 23.5556L47.1431 16.9716L56.0274 15.6061L60.0002 7.14282Z" stroke="#36B44A" stroke-width="1.5" stroke-linecap="round" stroke-linejoin="round"/>
<path d="M100 7.14282L103.973 15.6061L112.857 16.9716L106.429 23.5556L107.946 32.8571L100 28.4632L92.0545 32.8571L93.5716 23.5556L87.1431 16.9716L96.0274 15.6061L100 7.14282Z" stroke="#36B44A" stroke-width="1.5" stroke-linecap="round" stroke-linejoin="round"/>
<path d="M140 7.14282L143.973 15.6061L152.857 16.9716L146.429 23.5556L147.946 32.8571L140 28.4632L132.054 32.8571L133.572 23.5556L127.143 16.9716L136.027 15.6061L140 7.14282Z" stroke="#36B44A" stroke-width="1.5" stroke-linecap="round" stroke-linejoin="round"/>
<g opacity="0.5">
<path d="M180 7.14282L183.973 15.6061L192.857 16.9716L186.429 23.5556L187.946 32.8571L180 28.4632L172.054 32.8571L173.572 23.5556L167.143 16.9716L176.027 15.6061L180 7.14282Z" stroke="#344437" stroke-width="1.5" stroke-linecap="round" stroke-linejoin="round"/>
</g>
</svg>
