<svg width="32" height="30" viewBox="0 0 32 30" fill="none" xmlns="http://www.w3.org/2000/svg">
<path d="M31.834 2.32225C31.8311 1.90643 31.6647 1.50844 31.3708 1.21426C31.077 0.920078 30.6791 0.753317 30.2633 0.75H1.73798C0.870316 0.75 0.167315 1.45458 0.167315 2.32225V27.6778C0.170212 28.0936 0.336573 28.4916 0.630461 28.7857C0.924347 29.0799 1.32217 29.2467 1.73798 29.25H30.2633C30.68 29.2496 31.0795 29.0837 31.374 28.7889C31.6686 28.4941 31.834 28.0945 31.834 27.6778V2.32225ZM25.5007 19.75V22.9167H6.50065V19.75H25.5007ZM25.5007 7.08333V16.5833H16.0006V7.08333H25.5007ZM12.834 7.08333V10.25H6.50065V7.08333H12.834ZM12.834 13.4167V16.5833H6.50065V13.4167H12.834ZM22.334 10.25H19.1673V13.4167H22.334V10.25Z" fill="#2F3930"/>
</svg>
