<svg width="26" height="5" viewBox="0 0 26 5" fill="none" xmlns="http://www.w3.org/2000/svg">
<path d="M12.5996 4C13.428 4 14.0996 3.32843 14.0996 2.5C14.0996 1.67157 13.428 1 12.5996 1C11.7712 1 11.0996 1.67157 11.0996 2.5C11.0996 3.32843 11.7712 4 12.5996 4Z" stroke="#2F3930" stroke-linecap="round" stroke-linejoin="round"/>
<path d="M23.0996 4C23.928 4 24.5996 3.32843 24.5996 2.5C24.5996 1.67157 23.928 1 23.0996 1C22.2712 1 21.5996 1.67157 21.5996 2.5C21.5996 3.32843 22.2712 4 23.0996 4Z" stroke="#2F3930" stroke-linecap="round" stroke-linejoin="round"/>
<path d="M2.09961 4C2.92804 4 3.59961 3.32843 3.59961 2.5C3.59961 1.67157 2.92804 1 2.09961 1C1.27118 1 0.599609 1.67157 0.599609 2.5C0.599609 3.32843 1.27118 4 2.09961 4Z" stroke="#2F3930" stroke-linecap="round" stroke-linejoin="round"/>
</svg>
