<svg width="36" height="29" viewBox="0 0 36 29" fill="none" xmlns="http://www.w3.org/2000/svg">
<path d="M31.659 5.14697C33.1531 4.25379 34.271 2.84737 34.804 1.19031C33.4001 2.02331 31.8641 2.6101 30.2623 2.92531C28.0416 0.576186 24.5232 0.00451654 21.673 1.52973C18.8228 3.05495 17.3465 6.29946 18.069 9.45031C12.3184 9.1616 6.96062 6.44517 3.32901 1.97697C1.43374 5.24601 2.40226 9.42494 5.54234 11.527C4.40686 11.4905 3.29656 11.183 2.30401 10.6303C2.30401 10.6603 2.30401 10.6903 2.30401 10.7203C2.30467 14.1256 4.70463 17.0588 8.04234 17.7336C6.98912 18.0202 5.88435 18.0624 4.81234 17.857C5.75101 20.7691 8.43493 22.7641 11.494 22.8236C8.9604 24.8122 5.83147 25.8906 2.61068 25.8853C2.0398 25.8861 1.46936 25.8533 0.902344 25.787C4.17299 27.8887 7.97963 29.0042 11.8673 29.0003C17.2761 29.0375 22.4741 26.9051 26.2986 23.0803C30.1231 19.2555 32.2549 14.0574 32.2173 8.64864C32.2173 8.33864 32.2101 8.03031 32.1957 7.72364C33.5964 6.71131 34.8054 5.45722 35.7657 4.02031C34.4607 4.59875 33.0765 4.97851 31.659 5.14697Z" fill="#36B44A"/>
</svg>
