<svg width="69" height="61" viewBox="0 0 69 61" fill="none" xmlns="http://www.w3.org/2000/svg">
<path d="M58.2955 12.2727H42.9545V30.6818H3.06818V39.8864H6.13636C6.13636 45.1023 10.125 49.0909 15.3409 49.0909C20.5568 49.0909 24.5455 45.1023 24.5455 39.8864H42.9545C42.9545 45.1023 46.9432 49.0909 52.1591 49.0909C57.375 49.0909 61.3636 45.1023 61.3636 39.8864H67.5V24.5455L58.2955 12.2727ZM15.3409 44.4886C12.8864 44.4886 10.7386 42.3409 10.7386 39.8864C10.7386 37.4318 12.8864 35.2841 15.3409 35.2841C17.7955 35.2841 19.9432 37.4318 19.9432 39.8864C19.9432 42.3409 17.7955 44.4886 15.3409 44.4886ZM52.1591 44.4886C49.7045 44.4886 47.5568 42.3409 47.5568 39.8864C47.5568 37.4318 49.7045 35.2841 52.1591 35.2841C54.6136 35.2841 56.7614 37.4318 56.7614 39.8864C56.7614 42.3409 54.6136 44.4886 52.1591 44.4886ZM49.0909 24.5455V16.875H56.7614L62.8977 24.5455H49.0909ZM39.8864 16.875C39.8864 22.7045 34.9773 27.6136 29.1477 27.6136H10.7386C4.90909 27.6136 0 22.7045 0 16.875C0 11.0455 4.90909 6.13636 10.7386 6.13636H12.2727V3.06818H9.20455V0H21.4773V3.06818H18.4091V6.13636H29.1477C34.9773 6.13636 39.8864 11.0455 39.8864 16.875Z" fill="#36B44A"/>
<line x1="1" y1="59.5" x2="67.0073" y2="59.5" stroke="#36B44A" stroke-width="2" stroke-linecap="round"/>
</svg>
