<svg width="35" height="24" viewBox="0 0 35 24" fill="none" xmlns="http://www.w3.org/2000/svg">
<path d="M17.3439 23.6863H17.3106C17.2072 23.6863 6.86891 23.6663 4.26058 22.958C2.82628 22.5716 1.70616 21.4509 1.32058 20.0163C0.851541 17.3703 0.625045 14.6869 0.64391 11.9997C0.631792 9.30803 0.864416 6.62086 1.33891 3.97134C1.73509 2.53553 2.85029 1.40959 4.28224 0.999674C6.81891 0.333008 16.8722 0.333008 17.2989 0.333008H17.3339C17.4389 0.333008 27.8039 0.353008 30.3856 1.06134C31.8169 1.44969 32.9347 2.56817 33.3222 3.99967C33.8062 6.65558 34.0334 9.3519 34.0006 12.0513C34.0123 14.7397 33.7791 17.4236 33.3039 20.0697C32.9134 21.5024 31.7925 22.6207 30.3589 23.008C27.8256 23.6797 17.7706 23.6863 17.3439 23.6863ZM14.0106 7.00801L14.0022 17.008L22.6889 12.008L14.0106 7.00801Z" fill="#36B44A"/>
</svg>
