<svg width="72" height="43" viewBox="0 0 72 43" fill="none" xmlns="http://www.w3.org/2000/svg">
<path d="M51.5461 36.2959C50.9149 36.2959 50.5117 36.8418 50.4366 37.4024C50.3616 37.9689 50.6146 38.5002 51.2514 38.5002C51.8881 38.5002 52.283 37.9689 52.3581 37.4024C52.4331 36.8418 52.1328 36.2959 51.5461 36.2959Z" fill="#36B44A"/>
<path d="M39.538 35.835C38.7344 35.835 38.0059 36.4543 37.8807 37.3935C37.7556 38.3328 38.3173 38.9609 39.1209 38.9609C41.0952 38.9609 41.5095 35.835 39.538 35.835Z" fill="#36B44A"/>
<path d="M30.4216 35.8174C29.6041 35.8174 28.8894 36.4543 28.7643 37.3848C28.6392 38.3152 29.1703 38.958 30.0045 38.958C30.7998 38.958 31.5227 38.4267 31.6618 37.3906C31.8008 36.3398 31.2169 35.8174 30.4216 35.8174Z" fill="#36B44A"/>
<path d="M47.5667 36.3398C46.9355 36.3398 46.4989 36.8183 46.4211 37.3994C46.3432 37.9835 46.688 38.459 47.2831 38.459C47.8781 38.459 48.3508 37.9806 48.4287 37.3994C48.5066 36.8183 48.1979 36.3398 47.5667 36.3398Z" fill="#36B44A"/>
<path d="M61.6927 36.2344C61.22 36.2344 60.8001 36.478 60.6055 36.9623H62.513C62.5214 36.478 62.1932 36.2344 61.6927 36.2344Z" fill="#36B44A"/>
<path d="M26.0275 32.125L25.4075 36.7919C25.0015 39.8474 27.0175 42.3247 29.9121 42.3247H66.9452L68.3021 32.125H26.0275ZM32.0032 37.3936C31.8392 38.6352 30.966 39.3249 29.9761 39.3249C29.3727 39.3249 28.836 39.0079 28.6164 38.4385L28.5051 39.2633H28.1603L28.8666 33.9624H29.2114L28.8944 36.3399C29.2615 35.7352 29.8732 35.4623 30.4822 35.4623C31.4721 35.4623 32.1673 36.1579 32.0032 37.3936ZM32.9014 40.8219H32.5288L33.3963 39.2163L32.4676 35.521H32.8485L33.3796 37.7311L33.6522 38.8142L34.2055 37.7253L35.3873 35.521H35.7683L32.9014 40.8219ZM40.8819 39.2633H40.5315L40.6372 38.4679C40.2145 39.052 39.6501 39.322 39.0745 39.322C38.0845 39.322 37.3783 38.5354 37.5312 37.3907C37.6841 36.246 38.5962 35.474 39.5861 35.474C40.1589 35.474 40.7039 35.7529 40.9208 36.3369L41.0293 35.518H41.3796C41.2156 36.7714 41.0487 38.0129 40.8819 39.2633ZM41.9664 39.2633H41.616L42.3223 33.9624H42.6727L41.9664 39.2633ZM44.1798 39.3161C43.4262 39.3161 43.2455 38.8465 43.3428 38.1127L43.6459 35.835H42.8923L42.934 35.5239H43.6876L43.8322 34.435L44.1826 34.3968L44.0324 35.5239H45.2364L45.1947 35.835H43.9907L43.6876 38.1127C43.6209 38.6205 43.6737 38.9757 44.2243 38.9757C44.3967 38.9757 44.5969 38.914 44.7888 38.823L44.8694 39.1253C44.6358 39.2398 44.4022 39.3161 44.1798 39.3161ZM49.3046 37.3995C49.16 38.4884 48.3925 39.3514 47.258 39.3514C46.8854 39.3514 46.3487 39.231 46.1541 38.8201L45.8871 40.8189H45.0112L45.7147 35.5268H46.5322L46.5211 36.0405C46.8492 35.6237 47.347 35.4417 47.7474 35.4417C48.8402 35.4476 49.4519 36.3017 49.3046 37.3995ZM53.242 37.3995C53.1002 38.4737 52.2882 39.3455 51.1398 39.3455C49.9914 39.3455 49.4214 38.4737 49.5632 37.3995C49.705 36.3311 50.5253 35.4535 51.6515 35.4535C52.7749 35.4564 53.3838 36.334 53.242 37.3995ZM57.7884 39.278H56.7707L56.551 38.1714L56.4008 36.921L55.9198 38.1714L55.4081 39.278H54.3904L53.6508 35.5239H54.6268L55.0633 38.3329L56.2034 35.5239H56.9709L57.3713 38.3329L58.5559 35.5239H59.5235L57.7884 39.278ZM63.2496 37.7253H60.4884C60.4829 38.1861 60.8193 38.5207 61.4367 38.5207C61.7592 38.5207 62.1986 38.3916 62.4293 38.1714L62.9104 38.7555C62.4822 39.1635 61.8482 39.3602 61.3087 39.3602C60.0908 39.3602 59.4707 38.5647 59.6292 37.3701C59.7794 36.2342 60.6219 35.4182 61.7676 35.4182C62.9549 35.4182 63.5917 36.1902 63.2496 37.7253ZM66.2417 36.5923C66.0832 36.4338 65.9302 36.3487 65.6438 36.3487C65.185 36.3487 64.729 36.607 64.6344 37.2938L64.373 39.2633H63.4971L63.9949 35.5298H64.804L64.8124 35.9612C65.1461 35.5004 65.5215 35.43 65.8802 35.43C66.2444 35.43 66.5781 35.5826 66.7422 35.7851L66.2417 36.5923Z" fill="#36B44A"/>
<path d="M2.28571 10.2261L0 29.874H4.58811L6.87382 10.2261H2.28571ZM6.24261 29.874L9.47098 2.13092H28.3851L27.7984 7.17058H13.8478L12.9663 14.7521H26.1634L25.5989 19.5951H12.4018L11.2061 29.874H6.24261ZM32.3949 10.3053L31.2047 20.5461C30.8571 23.5223 32.1363 25.7853 35.0699 25.7853C37.8895 25.7853 40.0973 23.2846 40.4449 20.3083L41.6072 10.3053H46.1564L43.8763 29.9122H39.7775L39.7859 27.2529C37.6364 29.2371 35.7595 30.191 33.1651 30.191C28.7271 30.191 25.9048 26.66 26.611 20.5872L27.8067 10.3083H32.3949V10.3053ZM49.9715 21.8141C49.991 24.2356 51.7817 25.982 55.0156 25.982C56.7063 25.982 59.0059 25.3069 60.1905 24.1563L62.7682 27.2118C60.5631 29.3545 57.2485 30.3877 54.4261 30.3877C48.0334 30.3877 44.7216 26.2198 45.4501 19.9503C46.1425 13.9978 50.4776 9.7095 56.4922 9.7095C62.6959 9.7095 66.0994 13.7571 64.4477 21.8141H49.9715ZM60.513 17.8076C60.5075 15.2687 58.7751 13.9978 56.1446 13.9978C53.6642 13.9978 51.4842 15.2687 50.5109 17.8076H60.513ZM72 2.12799L68.7716 29.8711H64.2225L67.4508 2.12799H72ZM5.53076 7.92492H5.09976C3.11714 7.92492 1.9715 5.55331 3.13382 3.85973L5.78658 0L7.72193 4.25598C8.49218 5.95543 7.31595 7.92492 5.53076 7.92492Z" fill="url(#paint0_linear_1131_8087)"/>
<defs>
<linearGradient id="paint0_linear_1131_8087" x1="92.4919" y1="28.7229" x2="-70.7038" y2="-4.26257" gradientUnits="userSpaceOnUse">
<stop offset="0.0272" stop-color="#2DAA4A"/>
<stop offset="0.589" stop-color="#C6D32D"/>
</linearGradient>
</defs>
</svg>
