<svg width="300" height="185" viewBox="0 0 300 185" fill="none" xmlns="http://www.w3.org/2000/svg">
<path opacity="0.1" d="M300 118.516C300.005 123.516 299.4 128.497 298.199 133.35C297.795 134.985 297.326 136.587 296.791 138.154C296.136 140.088 295.378 141.986 294.519 143.839C294.086 144.776 293.628 145.695 293.146 146.595C293.154 151.721 292.098 156.794 290.046 161.492C286.337 169.922 279.722 176.737 271.407 180.697C266.208 183.177 260.527 184.482 254.767 184.517H56.9542C48.1532 184.536 39.5041 182.224 31.8863 177.816L31.7692 177.75C30.6841 177.115 29.6263 176.443 28.5956 175.733C26.2765 174.131 24.0978 172.335 22.0828 170.364C19.3555 167.698 16.9523 164.721 14.9231 161.492C10.157 153.925 7.63225 145.162 7.6411 136.218C2.81447 127.749 0 117.604 0 106.703C0 92.949 4.47259 80.4024 11.8208 70.9045C13.3527 68.9202 15.0308 67.0531 16.841 65.3188C18.6271 63.6027 20.5468 62.0313 22.582 60.6195C24.2103 59.4888 25.9121 58.4677 27.6761 57.5631C28.4122 57.1887 29.1508 56.8346 29.9022 56.5061C30.5619 56.2132 31.2292 55.9406 31.9042 55.6834C32.7141 55.376 33.5343 55.0933 34.3646 54.8352C35.1949 54.5771 36.0142 54.3513 36.8225 54.1577C38.0111 53.8673 39.2201 53.6313 40.4495 53.4496C41.4683 53.2993 42.4871 53.1949 43.5059 53.116C44.3159 53.0548 45.1335 53.0217 45.9562 53.0115H46.4019C47.3086 53.0115 48.2103 53.0472 49.1043 53.1083C49.1985 52.9198 49.3004 52.7288 49.3946 52.5429C49.7512 51.8628 50.1206 51.1853 50.4924 50.5231C50.4916 50.5172 50.4916 50.5112 50.4924 50.5052C50.5561 50.3881 50.6198 50.2735 50.686 50.1614C50.9865 49.6189 51.2998 49.0815 51.6208 48.5491C51.7685 48.2944 51.9137 48.055 52.0639 47.8156C52.0957 47.7561 52.1306 47.6983 52.1684 47.6424C52.3212 47.3877 52.4766 47.133 52.6345 46.8783C53.4207 45.6217 54.2383 44.3873 55.0873 43.1749L55.3038 42.8641C55.4362 42.6757 55.5585 42.4923 55.7062 42.3038C56.0577 41.8122 56.4194 41.3181 56.7836 40.8342C57.0383 40.4878 57.293 40.1439 57.5681 39.8153C58.2303 38.9663 58.9095 38.1173 59.6057 37.2683C60.3019 36.4193 61.0253 35.5813 61.7758 34.7544C61.8777 34.6398 61.9795 34.5277 62.0865 34.4156L63.1741 33.2287C63.2276 33.1727 63.2734 33.1217 63.3244 33.0708C63.4543 32.9307 63.5791 32.7906 63.7192 32.6556C64.3024 32.0367 64.901 31.4305 65.5021 30.8269C68.5612 27.78 71.8202 24.9405 75.2572 22.3274C75.3922 22.2204 75.5298 22.1186 75.6648 22.0167C76.3117 21.5302 76.9688 21.0488 77.626 20.575C81.2405 17.982 85.0188 15.6254 88.9374 13.5198C89.2074 13.3644 89.4824 13.2192 89.7601 13.0766C93.2731 11.218 96.886 9.55484 100.582 8.09458C102.597 7.29736 104.658 6.54853 106.731 5.86338C108.111 5.41 109.497 4.97956 110.9 4.57458C113.094 3.94291 115.303 3.37662 117.528 2.87571C124.081 1.40526 130.748 0.49692 137.456 0.160566C139.493 0.0569869 141.554 0.00349984 143.637 0.000103793C153.691 -0.0132055 163.705 1.25352 173.438 3.76971C173.538 3.92179 173.676 4.04578 173.838 4.12999C174 4.2142 174.18 4.25588 174.362 4.2511H175.218C175.59 4.35298 175.959 4.45487 176.331 4.56184C178.408 5.15955 180.455 5.81244 182.472 6.52051L182.982 6.7039C187.96 8.47433 192.805 10.6024 197.477 13.0715C201.688 15.2919 205.743 17.7972 209.613 20.57C210.209 20.9979 210.797 21.4292 211.376 21.8638C212.079 21.4139 212.794 20.9826 213.52 20.57C216.327 18.9715 219.308 17.7007 222.405 16.7825C228.879 14.8667 235.729 14.5988 242.333 16.0031C250.801 17.7988 258.468 22.2561 264.66 28.5957C267.181 31.1895 269.425 34.0389 271.356 37.0977C271.496 37.3167 271.636 37.5383 271.771 37.7624C273.431 40.4697 274.857 43.3131 276.035 46.2619C276.078 46.3714 276.122 46.4733 276.16 46.5803C277.247 49.3415 278.124 52.1811 278.783 55.0746C278.814 55.2224 278.849 55.3675 278.88 55.5153C279.496 58.3155 279.915 61.1557 280.133 64.0147C280.133 64.1166 280.133 64.221 280.153 64.328C280.26 65.807 280.315 67.3013 280.316 68.8108C280.316 70.1607 280.271 71.5005 280.187 72.83C280.187 72.9752 280.166 73.1255 280.153 73.2757C280.131 73.6603 280.097 74.0399 280.064 74.427C282.01 75.9961 283.83 77.7137 285.51 79.5644C286.252 80.3743 286.97 81.2149 287.665 82.0859C289.78 84.7372 291.639 87.5831 293.217 90.5854C297.524 98.7155 300 108.28 300 118.516Z" fill="#36B44A"/>
<path d="M82.1289 149.019C85.7495 155.733 93.4338 158.616 93.4338 158.616C93.4338 158.616 95.2479 150.611 91.6272 143.897C88.0066 137.182 80.3223 134.3 80.3223 134.3C80.3223 134.3 78.5082 142.304 82.1289 149.019Z" fill="#2F2E41"/>
<path d="M84.6174 146.81C91.1541 150.742 93.6716 158.554 93.6716 158.554C93.6716 158.554 85.591 159.989 79.0542 156.056C72.5175 152.124 70 144.312 70 144.312C70 144.312 78.0806 142.877 84.6174 146.81Z" fill="#36B44A"/>
<path d="M175.475 145.944H106.495V145.448H174.978V121.38H112.293L109.248 115.036L109.696 114.821L112.606 120.883H175.475V145.944Z" fill="#2F2E41"/>
<path d="M115.676 158.103C118.553 158.103 120.886 155.77 120.886 152.892C120.886 150.014 118.553 147.681 115.676 147.681C112.798 147.681 110.465 150.014 110.465 152.892C110.465 155.77 112.798 158.103 115.676 158.103Z" fill="#3F3D56"/>
<path d="M167.038 158.103C169.916 158.103 172.249 155.77 172.249 152.892C172.249 150.014 169.916 147.681 167.038 147.681C164.16 147.681 161.827 150.014 161.827 152.892C161.827 155.77 164.16 158.103 167.038 158.103Z" fill="#3F3D56"/>
<path d="M227.583 45.4514C229.364 45.4514 230.808 44.0072 230.808 42.2257C230.808 40.4442 229.364 39 227.583 39C225.801 39 224.357 40.4442 224.357 42.2257C224.357 44.0072 225.801 45.4514 227.583 45.4514Z" fill="#3F3D56"/>
<path d="M182.853 113.191H105.319L88.542 58.354H200.13L200.028 58.6766L182.853 113.191ZM105.686 112.695H182.489L199.453 58.8503H89.2127L105.686 112.695Z" fill="#2F2E41"/>
<path d="M176.8 110.338H108.699L93.9638 61.7041H191.975L191.886 61.9905L176.8 110.338Z" fill="#F2F2F2"/>
<path d="M201.52 53.4551L201.041 53.3278L204.315 40.9849H223.364V41.4813H204.697L201.52 53.4551Z" fill="#2F2E41"/>
<path d="M194.554 74.979H93.9633V75.4753H194.554V74.979Z" fill="#2F2E41"/>
<path d="M188.793 93.2622H99.5569V93.7585H188.793V93.2622Z" fill="#2F2E41"/>
<path d="M144.583 58.6021H144.087V112.943H144.583V58.6021Z" fill="#2F2E41"/>
<path d="M166.801 58.5865L163.239 112.926L163.734 112.958L167.296 58.619L166.801 58.5865Z" fill="#2F2E41"/>
<path d="M121.878 58.5864L121.383 58.6187L124.925 112.959L125.42 112.927L121.878 58.5864Z" fill="#2F2E41"/>
<path d="M230.225 158.417H70V159H230.225V158.417Z" fill="#2F2E41"/>
</svg>
