<svg width="300" height="185" viewBox="0 0 300 185" fill="none" xmlns="http://www.w3.org/2000/svg">
<path opacity="0.1" d="M300 118.516C300.005 123.516 299.4 128.497 298.199 133.35C297.795 134.985 297.326 136.587 296.791 138.154C296.136 140.088 295.378 141.986 294.519 143.839C294.086 144.776 293.628 145.695 293.146 146.595C293.154 151.721 292.098 156.794 290.046 161.492C286.337 169.922 279.722 176.737 271.407 180.697C266.208 183.177 260.527 184.482 254.767 184.517H56.9542C48.1532 184.536 39.5041 182.224 31.8863 177.816L31.7692 177.75C30.6841 177.115 29.6263 176.443 28.5956 175.733C26.2765 174.131 24.0978 172.335 22.0828 170.364C19.3555 167.698 16.9523 164.721 14.9231 161.492C10.157 153.925 7.63225 145.162 7.6411 136.218C2.81447 127.749 0 117.604 0 106.703C0 92.949 4.47259 80.4024 11.8208 70.9045C13.3527 68.9202 15.0308 67.0531 16.841 65.3188C18.6271 63.6027 20.5468 62.0313 22.582 60.6195C24.2103 59.4888 25.9121 58.4677 27.6761 57.5631C28.4122 57.1887 29.1508 56.8346 29.9022 56.5061C30.5619 56.2132 31.2292 55.9406 31.9042 55.6834C32.7141 55.376 33.5343 55.0933 34.3646 54.8352C35.1949 54.5771 36.0142 54.3513 36.8225 54.1577C38.0111 53.8673 39.2201 53.6313 40.4495 53.4496C41.4683 53.2993 42.4871 53.1949 43.5059 53.116C44.3159 53.0548 45.1335 53.0217 45.9562 53.0115H46.4019C47.3086 53.0115 48.2103 53.0472 49.1043 53.1083C49.1985 52.9198 49.3004 52.7288 49.3946 52.5429C49.7512 51.8628 50.1206 51.1853 50.4924 50.5231C50.4916 50.5172 50.4916 50.5112 50.4924 50.5052C50.5561 50.3881 50.6198 50.2735 50.686 50.1614C50.9865 49.6189 51.2998 49.0815 51.6208 48.5491C51.7685 48.2944 51.9137 48.055 52.0639 47.8156C52.0957 47.7561 52.1306 47.6983 52.1684 47.6424C52.3212 47.3877 52.4766 47.133 52.6345 46.8783C53.4207 45.6217 54.2383 44.3873 55.0873 43.1749L55.3038 42.8641C55.4362 42.6757 55.5585 42.4923 55.7062 42.3038C56.0577 41.8122 56.4194 41.3181 56.7836 40.8342C57.0383 40.4878 57.293 40.1439 57.5681 39.8153C58.2303 38.9663 58.9095 38.1173 59.6057 37.2683C60.3019 36.4193 61.0253 35.5813 61.7758 34.7544C61.8777 34.6398 61.9795 34.5277 62.0865 34.4156L63.1741 33.2287C63.2276 33.1727 63.2734 33.1217 63.3244 33.0708C63.4543 32.9307 63.5791 32.7906 63.7192 32.6556C64.3024 32.0367 64.901 31.4305 65.5021 30.8269C68.5612 27.78 71.8202 24.9405 75.2572 22.3274C75.3922 22.2204 75.5298 22.1186 75.6648 22.0167C76.3117 21.5302 76.9688 21.0488 77.626 20.575C81.2405 17.982 85.0188 15.6254 88.9374 13.5198C89.2074 13.3644 89.4824 13.2192 89.7601 13.0766C93.2731 11.218 96.886 9.55484 100.582 8.09458C102.597 7.29736 104.658 6.54853 106.731 5.86338C108.111 5.41 109.497 4.97956 110.9 4.57458C113.094 3.94291 115.303 3.37662 117.528 2.87571C124.081 1.40526 130.748 0.49692 137.456 0.160566C139.493 0.0569869 141.554 0.00349984 143.637 0.000103793C153.691 -0.0132055 163.705 1.25352 173.438 3.76971C173.538 3.92179 173.676 4.04578 173.838 4.12999C174 4.2142 174.18 4.25588 174.362 4.2511H175.218C175.59 4.35298 175.959 4.45487 176.331 4.56184C178.408 5.15955 180.455 5.81244 182.472 6.52051L182.982 6.7039C187.96 8.47433 192.805 10.6024 197.477 13.0715C201.688 15.2919 205.743 17.7972 209.613 20.57C210.209 20.9979 210.797 21.4292 211.376 21.8638C212.079 21.4139 212.794 20.9826 213.52 20.57C216.327 18.9715 219.308 17.7007 222.405 16.7825C228.879 14.8667 235.729 14.5988 242.333 16.0031C250.801 17.7988 258.468 22.2561 264.66 28.5957C267.181 31.1895 269.425 34.0389 271.356 37.0977C271.496 37.3167 271.636 37.5383 271.771 37.7624C273.431 40.4697 274.857 43.3131 276.035 46.2619C276.078 46.3714 276.122 46.4733 276.16 46.5803C277.247 49.3415 278.124 52.1811 278.783 55.0746C278.814 55.2224 278.849 55.3675 278.88 55.5153C279.496 58.3155 279.915 61.1557 280.133 64.0147C280.133 64.1166 280.133 64.221 280.153 64.328C280.26 65.807 280.315 67.3013 280.316 68.8108C280.316 70.1607 280.271 71.5005 280.187 72.83C280.187 72.9752 280.166 73.1255 280.153 73.2757C280.131 73.6603 280.097 74.0399 280.064 74.427C282.01 75.9961 283.83 77.7137 285.51 79.5644C286.252 80.3743 286.97 81.2149 287.665 82.0859C289.78 84.7372 291.639 87.5831 293.217 90.5854C297.524 98.7155 300 108.28 300 118.516Z" fill="#36B44A"/>
<path d="M167.044 58.9864H133.918C133.163 58.9873 132.439 59.2876 131.906 59.8214C131.372 60.3552 131.072 61.0789 131.071 61.8338V135.457L130.691 135.573L122.565 138.061C122.18 138.179 121.764 138.139 121.408 137.95C121.053 137.761 120.787 137.438 120.668 137.053L96.4962 58.0961C96.3786 57.711 96.4187 57.2949 96.6077 56.9393C96.7967 56.5837 97.1191 56.3178 97.5042 56.1998L110.027 52.3654L146.331 41.2531L158.853 37.4187C159.044 37.36 159.244 37.3395 159.443 37.3583C159.641 37.3772 159.834 37.435 160.01 37.5284C160.186 37.6219 160.342 37.7491 160.469 37.9029C160.596 38.0567 160.691 38.234 160.75 38.4247L166.928 58.6068L167.044 58.9864Z" fill="#F2F2F2"/>
<path d="M174.273 58.6068L166.826 34.2828C166.702 33.8775 166.499 33.5006 166.23 33.1736C165.96 32.8466 165.629 32.576 165.255 32.3771C164.88 32.1783 164.471 32.0551 164.049 32.0147C163.627 31.9743 163.201 32.0174 162.796 32.1415L145.19 37.5306L108.888 48.6448L91.2818 54.0358C90.4639 54.287 89.7791 54.8524 89.3776 55.6079C88.9762 56.3634 88.8909 57.2474 89.1405 58.0658L114.592 141.195C114.795 141.856 115.204 142.434 115.76 142.845C116.315 143.256 116.988 143.478 117.679 143.479C117.999 143.479 118.317 143.431 118.622 143.336L130.691 139.642L131.071 139.525V139.128L130.691 139.244L118.51 142.974C117.788 143.194 117.008 143.119 116.342 142.765C115.675 142.411 115.176 141.807 114.955 141.085L89.5051 57.9538C89.3952 57.5963 89.3569 57.2207 89.3924 56.8484C89.4278 56.4761 89.5364 56.1145 89.7119 55.7843C89.8873 55.454 90.1262 55.1616 90.4148 54.9238C90.7034 54.686 91.0361 54.5074 91.3938 54.3984L109 49.0074L145.302 37.8951L162.908 32.5041C163.179 32.4213 163.461 32.3791 163.745 32.3788C164.354 32.3802 164.946 32.5765 165.435 32.9389C165.924 33.3013 166.285 33.8108 166.463 34.3929L173.876 58.6068L173.994 58.9864H174.388L174.273 58.6068Z" fill="#3F3D56"/>
<path d="M112.287 56.2618C111.921 56.2615 111.565 56.144 111.27 55.9265C110.976 55.709 110.759 55.4029 110.652 55.0532L108.207 47.067C108.141 46.8525 108.118 46.6271 108.14 46.4038C108.161 46.1805 108.226 45.9635 108.332 45.7654C108.437 45.5673 108.58 45.3918 108.753 45.249C108.926 45.1063 109.126 44.999 109.34 44.9334L142.738 34.7087C143.171 34.5765 143.639 34.6216 144.039 34.8341C144.439 35.0466 144.739 35.4091 144.872 35.8421L147.317 43.8284C147.449 44.2617 147.404 44.7296 147.191 45.1297C146.979 45.5297 146.616 45.8291 146.183 45.9622L112.786 56.1868C112.624 56.2364 112.456 56.2617 112.287 56.2618Z" fill="#36B44A"/>
<path d="M125.095 40.5319C127.191 40.5319 128.891 38.8322 128.891 36.7354C128.891 34.6387 127.191 32.939 125.095 32.939C122.998 32.939 121.298 34.6387 121.298 36.7354C121.298 38.8322 122.998 40.5319 125.095 40.5319Z" fill="#36B44A"/>
<path d="M125.094 39.1396C126.422 39.1396 127.499 38.0633 127.499 36.7356C127.499 35.4079 126.422 34.3315 125.094 34.3315C123.767 34.3315 122.69 35.4079 122.69 36.7356C122.69 38.0633 123.767 39.1396 125.094 39.1396Z" fill="white"/>
<path d="M203.394 142.509H139.233C138.805 142.508 138.395 142.338 138.093 142.036C137.79 141.733 137.62 141.323 137.62 140.895V64.0168C137.62 63.589 137.79 63.1789 138.093 62.8764C138.395 62.5739 138.805 62.4038 139.233 62.4033H203.394C203.821 62.4038 204.231 62.574 204.534 62.8764C204.836 63.1789 205.007 63.589 205.007 64.0168V140.895C205.007 141.323 204.836 141.733 204.534 142.036C204.231 142.338 203.821 142.508 203.394 142.509Z" fill="#E6E6E6"/>
<path d="M173.876 58.6069H133.918C133.063 58.6081 132.243 58.9485 131.638 59.5534C131.033 60.1584 130.692 60.9785 130.691 61.8339V139.244L131.071 139.128V61.8339C131.072 61.0791 131.372 60.3553 131.906 59.8216C132.44 59.2878 133.163 58.9875 133.918 58.9866H173.994L173.876 58.6069ZM208.709 58.6069H133.918C133.063 58.6081 132.243 58.9485 131.638 59.5534C131.033 60.1584 130.692 60.9785 130.691 61.8339V148.773C130.692 149.629 131.033 150.449 131.638 151.054C132.243 151.659 133.063 151.999 133.918 152H208.709C209.564 151.999 210.384 151.659 210.989 151.054C211.594 150.449 211.934 149.629 211.936 148.773V61.8339C211.934 60.9785 211.594 60.1584 210.989 59.5534C210.384 58.9485 209.564 58.6081 208.709 58.6069ZM211.556 148.773C211.555 149.528 211.255 150.252 210.721 150.786C210.187 151.319 209.464 151.62 208.709 151.621H133.918C133.163 151.62 132.44 151.319 131.906 150.786C131.372 150.252 131.072 149.528 131.071 148.773V61.8339C131.072 61.0791 131.372 60.3553 131.906 59.8216C132.44 59.2878 133.163 58.9875 133.918 58.9866H208.709C209.464 58.9875 210.187 59.2878 210.721 59.8216C211.255 60.3553 211.555 61.0791 211.556 61.8339V148.773Z" fill="#3F3D56"/>
<path d="M188.777 66.959H153.85C153.397 66.9585 152.962 66.7783 152.642 66.4581C152.322 66.1378 152.142 65.7035 152.141 65.2506V56.8984C152.142 56.4454 152.322 56.0112 152.642 55.6909C152.962 55.3706 153.397 55.1905 153.85 55.1899H188.777C189.23 55.1905 189.664 55.3706 189.985 55.6909C190.305 56.0112 190.485 56.4454 190.485 56.8984V65.2506C190.485 65.7035 190.305 66.1378 189.985 66.4581C189.664 66.7783 189.23 66.9585 188.777 66.959Z" fill="#36B44A"/>
<path d="M171.313 55.7594C173.41 55.7594 175.11 54.0597 175.11 51.963C175.11 49.8662 173.41 48.1665 171.313 48.1665C169.217 48.1665 167.517 49.8662 167.517 51.963C167.517 54.0597 169.217 55.7594 171.313 55.7594Z" fill="#36B44A"/>
<path d="M171.313 54.2752C172.59 54.2752 173.626 53.2399 173.626 51.9628C173.626 50.6857 172.59 49.6504 171.313 49.6504C170.036 49.6504 169.001 50.6857 169.001 51.9628C169.001 53.2399 170.036 54.2752 171.313 54.2752Z" fill="white"/>
</svg>
